<?xml version="1.0" encoding="UTF-8"?>
<svg id="Layer_1" data-name="Layer 1" xmlns="http://www.w3.org/2000/svg" viewBox="0 0 1000 1000">
  <defs>
    <style>
      .cls-1 {
        fill: #fff;
      }
    </style>
  </defs>
  <polygon class="cls-1" points="1000 372.42 1000 732.89 0 732.89 0 372.42 490.88 372.42 558.22 471.08 625.83 372.42 1000 372.42"/>
  <g>
    <polygon points="538.69 684.54 538.69 495.65 456.12 375.42 357.34 231.6 401.16 231.6 558.23 461.7 715.91 231.6 759.15 231.6 659.68 375.43 576.53 495.66 576.53 684.54 538.69 684.54"/>
    <path class="cls-1" d="M749.05,236.9l-93.72,135.53-84.09,121.58v185.25h-27.26v-185.25l-83.49-121.58-93.09-135.53h30.97l92.51,135.53,67.34,98.65,67.6-98.65,92.87-135.53h30.36M769.24,226.31h-56.13l-3.15,4.6-92.87,135.53-58.86,85.89-58.62-85.87-92.51-135.53-3.15-4.62h-56.68l11.39,16.58,93.09,135.53,81.63,118.87v192.55h48.43v-192.53l82.21-118.86,93.73-135.53,11.48-16.61h0Z"/>
  </g>
  <g>
    <path d="M624.2,597.38c0,8.89,1.14,17.14,3.43,24.75,2.28,7.62,5.77,14.16,10.47,19.61,4.69,5.46,10.66,9.78,17.9,12.95,7.24,3.18,15.67,4.76,25.33,4.76,15.99,0,29.57-4.5,40.75-13.52,11.17-9.01,19.04-20.75,23.61-35.22h23.99c-6.6,22.34-17.27,39.35-31.99,51.03-14.73,11.68-33.89,17.52-57.5,17.52-26.15,0-46.02-7.36-59.6-22.09-13.59-14.72-20.37-35.04-20.37-60.93,0-15.74,2.34-31.04,7.05-45.89,4.69-14.85,11.61-28.11,20.75-39.8,9.14-11.67,20.31-21.07,33.51-28.18,13.2-7.1,28.18-10.66,44.94-10.66,11.93,0,22.47,1.85,31.61,5.52,9.14,3.68,16.95,8.89,23.42,15.61,6.47,6.73,11.36,14.79,14.66,24.18,3.3,9.4,4.95,19.8,4.95,31.23,0,5.59-.13,11.17-.38,16.76-.26,5.59-.76,11.3-1.52,17.14h-153.85c-.76,4.57-1.14,9.65-1.14,15.23ZM756.92,554.15c.13-2.41.19-4.88.19-7.43,0-16.76-4.76-30.08-14.28-39.99-9.52-9.9-22.66-14.85-39.41-14.85-9.9,0-18.98,1.97-27.23,5.9-8.25,3.94-15.61,9.14-22.09,15.61-6.47,6.47-11.87,13.9-16.19,22.28-4.32,8.38-7.49,17.14-9.52,26.28h128.33c0-2.79.06-5.39.19-7.81Z"/>
    <path d="M852.31,477.42l-9.9,45.32h.76c7.62-14.22,17.01-25.76,28.18-34.65,11.17-8.88,25.51-13.33,43.03-13.33h9.9c1.01,0,2.03.13,3.05.38l-5.33,23.99c-2.29,0-4.57-.06-6.86-.19-2.28-.13-4.57-.19-6.86-.19-10.66.26-20.12,2.42-28.37,6.47-8.25,4.06-15.42,9.46-21.52,16.19-6.09,6.73-11.11,14.41-15.04,23.04-3.94,8.64-6.92,17.52-8.95,26.66l-22.09,102.82h-23.61l41.89-196.5h21.71Z"/>
  </g>
  <g>
    <path d="M82.68,482.75l15.61,167.56h.76l81.11-167.56h28.18l13.33,166.04h.76l83.4-166.04h25.51l-103.2,196.5h-25.9l-14.09-164.89h-.76l-80.73,164.89h-26.28l-22.85-196.5h25.13Z"/>
    <path d="M406.75,407.35l-23.99,111.2h.76c6.86-11.67,16.37-21.52,28.56-29.51,12.18-8,25.64-12,40.37-12,8.63,0,16.56,1.02,23.8,3.05,7.23,2.03,13.52,5.14,18.85,9.33,5.33,4.19,9.46,9.65,12.38,16.37,2.92,6.73,4.38,14.79,4.38,24.18,0,5.33-1.02,13.08-3.04,23.23l-27.04,126.05h-23.99l27.42-126.81c.76-3.05,1.39-6.28,1.9-9.71.51-3.43.76-6.79.76-10.09,0-6.6-1.15-12.12-3.43-16.56-2.29-4.44-5.33-8.06-9.14-10.85-3.81-2.79-8.19-4.82-13.14-6.09-4.95-1.27-10.09-1.9-15.42-1.9-8.63,0-17.01,1.9-25.13,5.71-8.13,3.81-15.61,9.2-22.47,16.19-6.85,6.98-12.82,15.49-17.9,25.51-5.08,10.03-8.89,21.26-11.42,33.7l-21.71,100.92h-23.61l58.26-271.9h23.99Z"/>
  </g>
</svg>